# Blender v2.79 (sub 0) OBJ File: '5c.blend'
# www.blender.org
mtllib 1c.mtl
v 0.000000 -0.150000 -3.000000
v 0.000000 0.150000 -3.000000
v 1.500000 -0.150000 -2.598076
v 1.500000 0.150000 -2.598076
v 2.598076 -0.150000 -1.500000
v 2.598076 0.150000 -1.500000
v 3.000000 -0.150000 0.000000
v 3.000000 0.150000 0.000000
v 2.598076 -0.150000 1.500000
v 2.598076 0.150000 1.500000
v 1.500000 -0.150000 2.598076
v 1.500000 0.150000 2.598076
v 0.000000 -0.150000 3.000000
v 0.000000 0.150000 3.000000
v -1.499999 -0.150000 2.598077
v -1.499999 0.150000 2.598077
v -2.598076 -0.150000 1.500001
v -2.598076 0.150000 1.500001
v -3.000000 -0.150000 0.000001
v -3.000000 0.150000 0.000001
v -2.598077 -0.150000 -1.499998
v -2.598077 0.150000 -1.499998
v -1.500002 -0.150000 -2.598075
v -1.500002 0.150000 -2.598075
vt 0.796088 0.029074
vt 0.796088 0.047009
vt 0.885761 0.047009
vt 0.885761 0.029074
vt 0.951406 0.047009
vt 0.951406 0.029074
vt 0.885761 0.029074
vt 0.885761 0.047009
vt 0.796088 0.047009
vt 0.796088 0.029074
vt 0.706414 0.047009
vt 0.706414 0.029074
vt 0.951406 0.029074
vt 0.951406 0.047009
vt 0.885761 0.047009
vt 0.885761 0.029074
vt 0.796088 0.047009
vt 0.796088 0.029074
vt 0.706414 0.047009
vt 0.706414 0.029074
vt 0.640769 0.047009
vt 0.640769 0.029074
vt 0.706414 0.029074
vt 0.706414 0.047009
vt 0.796087 0.047009
vt 0.796087 0.029074
vt 0.885761 0.047009
vt 0.885761 0.029074
vt 0.736837 0.931917
vt 0.500000 0.995377
vt 0.263162 0.931917
vt 0.089786 0.758540
vt 0.026325 0.521703
vt 0.089786 0.284865
vt 0.263163 0.111489
vt 0.500000 0.048028
vt 0.736837 0.111489
vt 0.910214 0.284865
vt 0.973675 0.521703
vt 0.910214 0.758540
vt 0.951406 0.047009
vt 0.951406 0.029074
vt 0.706414 0.029074
vt 0.706414 0.047009
vt 0.498531 0.995260
vt 0.263163 0.933375
vt 0.089786 0.759998
vt 0.026325 0.523160
vt 0.089786 0.286323
vt 0.263163 0.112946
vt 0.500000 0.049486
vt 0.736837 0.112946
vt 0.910214 0.286323
vt 0.973675 0.523160
vt 0.910214 0.759997
vt 0.736838 0.933374
vn 0.2588 0.0000 -0.9659
vn 0.7071 0.0000 -0.7071
vn 0.9659 0.0000 -0.2588
vn 0.9659 0.0000 0.2588
vn 0.7071 0.0000 0.7071
vn 0.2588 0.0000 0.9659
vn -0.2588 0.0000 0.9659
vn -0.7071 0.0000 0.7071
vn -0.9659 0.0000 0.2588
vn -0.9659 0.0000 -0.2588
vn 0.0000 1.0000 0.0000
vn -0.7071 0.0000 -0.7071
vn -0.2588 0.0000 -0.9659
vn 0.0000 -1.0000 -0.0000
usemtl Material.001
s off
f 1/1/1 2/2/1 4/3/1 3/4/1
f 3/4/2 4/3/2 6/5/2 5/6/2
f 5/7/3 6/8/3 8/9/3 7/10/3
f 7/10/4 8/9/4 10/11/4 9/12/4
f 9/13/5 10/14/5 12/15/5 11/16/5
f 11/16/6 12/15/6 14/17/6 13/18/6
f 13/18/7 14/17/7 16/19/7 15/20/7
f 15/20/8 16/19/8 18/21/8 17/22/8
f 17/23/9 18/24/9 20/25/9 19/26/9
f 19/26/10 20/25/10 22/27/10 21/28/10
f 4/29/11 2/30/11 24/31/11 22/32/11 20/33/11 18/34/11 16/35/11 14/36/11 12/37/11 10/38/11 8/39/11 6/40/11
f 21/28/12 22/27/12 24/41/12 23/42/12
f 23/43/13 24/44/13 2/2/13 1/1/13
f 1/45/14 3/46/14 5/47/14 7/48/14 9/49/14 11/50/14 13/51/14 15/52/14 17/53/14 19/54/14 21/55/14 23/56/14
